<mxfile host="Electron" agent="Mozilla/5.0 (Windows NT 10.0; Win64; x64) AppleWebKit/537.36 (KHTML, like Gecko) draw.io/28.1.2 Chrome/138.0.7204.243 Electron/37.4.0 Safari/537.36" version="28.1.2">
  <diagram name="Страница — 1" id="wOmVjZLwl1YLNdoz_kf1">
    <mxGraphModel dx="933" dy="743" grid="1" gridSize="10" guides="1" tooltips="1" connect="1" arrows="1" fold="1" page="1" pageScale="1" pageWidth="827" pageHeight="1169" math="0" shadow="0">
      <root>
        <mxCell id="0" />
        <mxCell id="1" parent="0" />
        <mxCell id="4xsprLM3n0JIs2Vt7z1M-11" value="Платеж" style="swimlane;fontStyle=1;align=center;verticalAlign=top;childLayout=stackLayout;horizontal=1;startSize=26;horizontalStack=0;resizeParent=1;resizeParentMax=0;resizeLast=0;collapsible=1;marginBottom=0;whiteSpace=wrap;html=1;" vertex="1" parent="1">
          <mxGeometry x="680" y="250" width="160" height="100" as="geometry" />
        </mxCell>
        <mxCell id="4xsprLM3n0JIs2Vt7z1M-12" value="+ Сумма платежа&lt;div&gt;+ Дата платежа&lt;/div&gt;&lt;div&gt;+ Метод оплаты&lt;/div&gt;&lt;div&gt;+ Статус платежа&lt;br&gt;&lt;div&gt;&lt;br&gt;&lt;/div&gt;&lt;/div&gt;" style="text;strokeColor=none;fillColor=none;align=left;verticalAlign=top;spacingLeft=4;spacingRight=4;overflow=hidden;rotatable=0;points=[[0,0.5],[1,0.5]];portConstraint=eastwest;whiteSpace=wrap;html=1;" vertex="1" parent="4xsprLM3n0JIs2Vt7z1M-11">
          <mxGeometry y="26" width="160" height="74" as="geometry" />
        </mxCell>
        <mxCell id="4xsprLM3n0JIs2Vt7z1M-15" value="Способ оплаты" style="swimlane;fontStyle=1;align=center;verticalAlign=top;childLayout=stackLayout;horizontal=1;startSize=26;horizontalStack=0;resizeParent=1;resizeParentMax=0;resizeLast=0;collapsible=1;marginBottom=0;whiteSpace=wrap;html=1;" vertex="1" parent="1">
          <mxGeometry x="440" y="250" width="160" height="90" as="geometry" />
        </mxCell>
        <mxCell id="4xsprLM3n0JIs2Vt7z1M-16" value="+ Кредитная карта&lt;div&gt;+ Дебетовая карта&lt;/div&gt;&lt;div&gt;+ Наличные&amp;nbsp;&lt;/div&gt;&lt;div&gt;+ Банковский перевод&lt;/div&gt;" style="text;strokeColor=none;fillColor=none;align=left;verticalAlign=top;spacingLeft=4;spacingRight=4;overflow=hidden;rotatable=0;points=[[0,0.5],[1,0.5]];portConstraint=eastwest;whiteSpace=wrap;html=1;" vertex="1" parent="4xsprLM3n0JIs2Vt7z1M-15">
          <mxGeometry y="26" width="160" height="64" as="geometry" />
        </mxCell>
        <mxCell id="4xsprLM3n0JIs2Vt7z1M-17" value="Бронирование" style="swimlane;fontStyle=1;align=center;verticalAlign=top;childLayout=stackLayout;horizontal=1;startSize=26;horizontalStack=0;resizeParent=1;resizeParentMax=0;resizeLast=0;collapsible=1;marginBottom=0;whiteSpace=wrap;html=1;" vertex="1" parent="1">
          <mxGeometry x="640" y="40" width="200" height="100" as="geometry" />
        </mxCell>
        <mxCell id="4xsprLM3n0JIs2Vt7z1M-18" value="+ Дата бронирования&lt;div&gt;+ Дата реализации услуги&lt;/div&gt;&lt;div&gt;&lt;span style=&quot;background-color: transparent; color: light-dark(rgb(0, 0, 0), rgb(255, 255, 255));&quot;&gt;+Итоговая стоимость&amp;nbsp;&lt;/span&gt;&lt;/div&gt;&lt;div&gt;&lt;span style=&quot;background-color: transparent; color: light-dark(rgb(0, 0, 0), rgb(255, 255, 255));&quot;&gt;+ Статус бронирования&lt;/span&gt;&lt;/div&gt;&lt;div&gt;&lt;br&gt;&lt;/div&gt;" style="text;strokeColor=none;fillColor=none;align=left;verticalAlign=top;spacingLeft=4;spacingRight=4;overflow=hidden;rotatable=0;points=[[0,0.5],[1,0.5]];portConstraint=eastwest;whiteSpace=wrap;html=1;" vertex="1" parent="4xsprLM3n0JIs2Vt7z1M-17">
          <mxGeometry y="26" width="200" height="74" as="geometry" />
        </mxCell>
        <mxCell id="4xsprLM3n0JIs2Vt7z1M-21" value="Номер" style="swimlane;fontStyle=1;align=center;verticalAlign=top;childLayout=stackLayout;horizontal=1;startSize=26;horizontalStack=0;resizeParent=1;resizeParentMax=0;resizeLast=0;collapsible=1;marginBottom=0;whiteSpace=wrap;html=1;" vertex="1" parent="1">
          <mxGeometry x="400" y="40" width="160" height="90" as="geometry" />
        </mxCell>
        <mxCell id="4xsprLM3n0JIs2Vt7z1M-22" value="+ Тип номера&lt;div&gt;+ Этаж&lt;/div&gt;&lt;div&gt;+ Описание&lt;/div&gt;&lt;div&gt;&lt;div&gt;+ Цена за ночь&amp;nbsp;&lt;/div&gt;&lt;/div&gt;" style="text;strokeColor=none;fillColor=none;align=left;verticalAlign=top;spacingLeft=4;spacingRight=4;overflow=hidden;rotatable=0;points=[[0,0.5],[1,0.5]];portConstraint=eastwest;whiteSpace=wrap;html=1;" vertex="1" parent="4xsprLM3n0JIs2Vt7z1M-21">
          <mxGeometry y="26" width="160" height="64" as="geometry" />
        </mxCell>
        <mxCell id="4xsprLM3n0JIs2Vt7z1M-25" value="Гость&amp;nbsp;" style="swimlane;fontStyle=1;align=center;verticalAlign=top;childLayout=stackLayout;horizontal=1;startSize=26;horizontalStack=0;resizeParent=1;resizeParentMax=0;resizeLast=0;collapsible=1;marginBottom=0;whiteSpace=wrap;html=1;" vertex="1" parent="1">
          <mxGeometry x="120" y="40" width="170" height="130" as="geometry" />
        </mxCell>
        <mxCell id="4xsprLM3n0JIs2Vt7z1M-26" value="+ ФИО&lt;div style=&quot;forced-color-adjust: none;&quot;&gt;+ Паспортные данные&lt;/div&gt;&lt;div style=&quot;forced-color-adjust: none;&quot;&gt;+ Дата рождения&lt;/div&gt;&lt;div style=&quot;forced-color-adjust: none;&quot;&gt;+ Номер телефона&amp;nbsp;&lt;/div&gt;&lt;div style=&quot;forced-color-adjust: none;&quot;&gt;+ Почта&lt;/div&gt;&lt;div style=&quot;forced-color-adjust: none;&quot;&gt;+ Гражданство&lt;br style=&quot;forced-color-adjust: none;&quot;&gt;&lt;div style=&quot;forced-color-adjust: none;&quot;&gt;&lt;br style=&quot;forced-color-adjust: none; color: rgb(0, 0, 0); font-family: Helvetica; font-size: 12px; font-style: normal; font-variant-ligatures: normal; font-variant-caps: normal; font-weight: 400; letter-spacing: normal; orphans: 2; text-align: left; text-indent: 0px; text-transform: none; widows: 2; word-spacing: 0px; -webkit-text-stroke-width: 0px; white-space: normal; background-color: rgb(236, 236, 236); text-decoration-thickness: initial; text-decoration-style: initial; text-decoration-color: initial;&quot;&gt;&lt;br&gt;&lt;br&gt;&lt;/div&gt;&lt;/div&gt;" style="text;strokeColor=none;fillColor=none;align=left;verticalAlign=top;spacingLeft=4;spacingRight=4;overflow=hidden;rotatable=0;points=[[0,0.5],[1,0.5]];portConstraint=eastwest;whiteSpace=wrap;html=1;" vertex="1" parent="4xsprLM3n0JIs2Vt7z1M-25">
          <mxGeometry y="26" width="170" height="104" as="geometry" />
        </mxCell>
        <mxCell id="4xsprLM3n0JIs2Vt7z1M-29" value="" style="endArrow=none;html=1;rounded=0;exitX=0;exitY=0.5;exitDx=0;exitDy=0;" edge="1" parent="1" source="4xsprLM3n0JIs2Vt7z1M-22">
          <mxGeometry width="50" height="50" relative="1" as="geometry">
            <mxPoint x="390" y="410" as="sourcePoint" />
            <mxPoint x="290" y="97" as="targetPoint" />
          </mxGeometry>
        </mxCell>
        <mxCell id="4xsprLM3n0JIs2Vt7z1M-31" value="выбирает" style="text;html=1;align=center;verticalAlign=middle;resizable=0;points=[];autosize=1;strokeColor=none;fillColor=none;" vertex="1" parent="1">
          <mxGeometry x="300" y="68" width="80" height="30" as="geometry" />
        </mxCell>
        <mxCell id="4xsprLM3n0JIs2Vt7z1M-32" value="" style="endArrow=none;html=1;rounded=0;entryX=-0.007;entryY=0.412;entryDx=0;entryDy=0;entryPerimeter=0;" edge="1" parent="1" target="4xsprLM3n0JIs2Vt7z1M-18">
          <mxGeometry width="50" height="50" relative="1" as="geometry">
            <mxPoint x="560" y="98" as="sourcePoint" />
            <mxPoint x="610" y="48" as="targetPoint" />
          </mxGeometry>
        </mxCell>
        <mxCell id="4xsprLM3n0JIs2Vt7z1M-33" value="имеет" style="text;html=1;align=center;verticalAlign=middle;resizable=0;points=[];autosize=1;strokeColor=none;fillColor=none;" vertex="1" parent="1">
          <mxGeometry x="570" y="70" width="60" height="30" as="geometry" />
        </mxCell>
        <mxCell id="4xsprLM3n0JIs2Vt7z1M-34" value="" style="endArrow=none;html=1;rounded=0;exitX=0.5;exitY=0;exitDx=0;exitDy=0;" edge="1" parent="1" source="4xsprLM3n0JIs2Vt7z1M-11">
          <mxGeometry width="50" height="50" relative="1" as="geometry">
            <mxPoint x="710" y="190" as="sourcePoint" />
            <mxPoint x="760" y="140" as="targetPoint" />
          </mxGeometry>
        </mxCell>
        <mxCell id="4xsprLM3n0JIs2Vt7z1M-35" value="подтверждает" style="edgeLabel;html=1;align=center;verticalAlign=middle;resizable=0;points=[];" vertex="1" connectable="0" parent="4xsprLM3n0JIs2Vt7z1M-34">
          <mxGeometry x="-0.0545" y="-7" relative="1" as="geometry">
            <mxPoint x="33" as="offset" />
          </mxGeometry>
        </mxCell>
        <mxCell id="4xsprLM3n0JIs2Vt7z1M-36" value="" style="endArrow=none;html=1;rounded=0;entryX=0.013;entryY=0.297;entryDx=0;entryDy=0;entryPerimeter=0;" edge="1" parent="1" target="4xsprLM3n0JIs2Vt7z1M-12">
          <mxGeometry width="50" height="50" relative="1" as="geometry">
            <mxPoint x="600" y="300" as="sourcePoint" />
            <mxPoint x="650" y="250" as="targetPoint" />
          </mxGeometry>
        </mxCell>
        <mxCell id="4xsprLM3n0JIs2Vt7z1M-37" value="имеет" style="text;html=1;align=center;verticalAlign=middle;resizable=0;points=[];autosize=1;strokeColor=none;fillColor=none;" vertex="1" parent="1">
          <mxGeometry x="600" y="270" width="60" height="30" as="geometry" />
        </mxCell>
      </root>
    </mxGraphModel>
  </diagram>
</mxfile>
